<svg width="1728" height="654" viewBox="0 0 1728 654" fill="none" xmlns="http://www.w3.org/2000/svg">
<path d="M76.875 73.125C76.875 32.7392 109.614 0 150 0V16.875C150 47.941 124.816 73.125 93.75 73.125H76.875Z" fill="#252429"/>
<path d="M73.125 73.125C73.125 32.7392 40.3858 0 0 0V16.875C0 47.941 25.184 73.125 56.25 73.125H73.125Z" fill="#252429"/>
<path d="M150 150C109.614 150 76.875 117.261 76.875 76.875H93.75C124.816 76.875 150 102.059 150 133.125V150Z" fill="#252429"/>
<path d="M73.125 76.875C73.125 117.261 40.3858 150 0 150V133.125C0 102.059 25.184 76.875 56.25 76.875H73.125Z" fill="#252429"/>
<path d="M150 150C150 108.748 183.579 75.3066 225 75.3066C266.421 75.3066 300 108.748 300 150L150 150Z" fill="#252429"/>
<path d="M300 8.9503e-05C300 41.2521 266.421 74.6934 225 74.6934C183.579 74.6934 150 41.252 150 6.98864e-05L300 8.9503e-05Z" fill="#252429"/>
<path d="M255.951 263.152C252.912 260.102 255.071 254.9 259.377 254.9H295.164C297.835 254.9 300 257.066 300.001 259.737V295.647C300.001 299.96 294.782 302.116 291.737 299.061L255.951 263.152ZM255.951 210.695C252.912 207.645 255.072 202.444 259.377 202.444H295.164C297.835 202.444 300.001 204.609 300.001 207.281V243.191C300 247.504 294.782 249.66 291.737 246.605L255.951 210.695ZM255.951 158.252C252.912 155.203 255.071 150.001 259.377 150.001H295.164C297.835 150.001 300.001 152.167 300.001 154.838V190.747C300.001 195.061 294.782 197.217 291.737 194.161L255.951 158.252ZM203.691 263.152C200.652 260.102 202.812 254.9 207.117 254.9H242.904C245.575 254.9 247.741 257.066 247.741 259.737V295.647C247.741 299.96 242.522 302.116 239.477 299.061L203.691 263.152ZM203.691 210.695C200.652 207.645 202.812 202.444 207.117 202.444H242.904C245.575 202.444 247.741 204.609 247.741 207.281V243.191C247.741 247.504 242.522 249.66 239.477 246.605L203.691 210.695ZM203.691 158.252C200.652 155.203 202.812 150 207.117 150H242.904C245.575 150 247.741 152.166 247.741 154.837L247.741 190.747C247.741 195.061 242.522 197.217 239.477 194.161L203.691 158.252ZM151.421 263.152C148.382 260.102 150.541 254.9 154.846 254.9H190.633C193.305 254.9 195.47 257.066 195.47 259.737V295.647C195.47 299.96 190.251 302.116 187.207 299.061L151.421 263.152ZM151.421 210.695C148.382 207.645 150.541 202.444 154.846 202.444H190.633C193.305 202.444 195.47 204.609 195.47 207.281L195.47 243.191C195.47 247.504 190.251 249.66 187.207 246.605L151.421 210.695ZM151.421 158.252C148.382 155.203 150.541 150 154.846 150H190.633C193.305 150 195.47 152.166 195.47 154.837V190.747C195.47 195.061 190.251 197.217 187.207 194.161L151.421 158.252Z" fill="#252429"/>
<mask id="path-5-inside-1_487_102" fill="white">
<path d="M441.216 0C446.067 0 450 3.93358 450 8.78516V141.201C450 146.053 446.067 149.985 441.216 149.985H308.784C303.933 149.985 300 146.052 300 141.201V8.78516C300 3.93373 303.933 0.000231963 308.784 0H441.216ZM358.783 50.001C353.932 50.0012 349.999 53.9347 349.999 58.7861V91.2119C349.999 96.0633 353.932 99.9959 358.783 99.9961H391.215C396.066 99.996 399.999 96.0633 399.999 91.2119V58.7861C399.999 53.9346 396.066 50.0011 391.215 50.001H358.783Z"/>
</mask>
<path d="M450 141.201L455 141.201V141.201H450ZM308.784 149.985L308.784 154.985H308.784V149.985ZM300 141.201L295 141.201L295 141.201L300 141.201ZM308.784 0L308.784 -5L308.784 -5L308.784 0ZM358.783 50.001L358.783 45.001L358.783 45.001L358.783 50.001ZM349.999 91.2119L344.999 91.2119L344.999 91.212L349.999 91.2119ZM358.783 99.9961L358.783 104.996H358.783V99.9961ZM391.215 99.9961L391.215 104.996L391.215 104.996L391.215 99.9961ZM399.999 91.2119L404.999 91.212V91.2119H399.999ZM391.215 50.001L391.215 45.001H391.215V50.001ZM441.216 0V5C443.305 5 445 6.69428 445 8.78516H450H455C455 1.17288 448.83 -5 441.216 -5V0ZM450 8.78516H445V141.201H450H455V8.78516H450ZM450 141.201L445 141.201C445 143.291 443.306 144.985 441.216 144.985V149.985V154.985C448.829 154.985 455 148.814 455 141.201L450 141.201ZM441.216 149.985V144.985H308.784V149.985V154.985H441.216V149.985ZM308.784 149.985L308.784 144.985C306.694 144.985 305 143.291 305 141.201L300 141.201L295 141.201C295 148.814 301.172 154.985 308.784 154.985L308.784 149.985ZM300 141.201H305V8.78516H300H295V141.201H300ZM300 8.78516H305C305 6.69467 306.695 5.0001 308.784 5L308.784 0L308.784 -5C301.171 -4.99964 295 1.17279 295 8.78516H300ZM308.784 0V5H441.216V0V-5H308.784V0ZM358.783 50.001L358.783 45.001C351.17 45.0013 344.999 51.1738 344.999 58.7861H349.999H354.999C354.999 56.6956 356.694 55.0011 358.783 55.001L358.783 50.001ZM349.999 58.7861H344.999V91.2119H349.999H354.999V58.7861H349.999ZM349.999 91.2119L344.999 91.212C344.999 98.8248 351.17 104.996 358.783 104.996L358.783 99.9961L358.783 94.9961C356.693 94.996 354.999 93.3017 354.999 91.2118L349.999 91.2119ZM358.783 99.9961V104.996H391.215V99.9961V94.9961H358.783V99.9961ZM391.215 99.9961L391.215 104.996C398.828 104.996 404.999 98.8247 404.999 91.212L399.999 91.2119L394.999 91.2118C394.999 93.3018 393.305 94.996 391.215 94.9961L391.215 99.9961ZM399.999 91.2119H404.999V58.7861H399.999H394.999V91.2119H399.999ZM399.999 58.7861H404.999C404.999 51.1738 398.828 45.0012 391.215 45.001L391.215 50.001L391.215 55.001C393.304 55.001 394.999 56.6955 394.999 58.7861H399.999ZM391.215 50.001V45.001H358.783V50.001V55.001H391.215V50.001Z" fill="#252429" mask="url(#path-5-inside-1_487_102)"/>
<rect x="302.5" y="152.5" width="145" height="145" rx="72.5" stroke="#252429" stroke-width="5"/>
<rect x="352.499" y="202.493" width="45" height="45" rx="22.5" stroke="#252429" stroke-width="5"/>
<path d="M452.5 294.228V155.769C452.5 153.963 453.964 152.5 455.77 152.5C492.623 152.5 522.499 182.376 522.499 219.229V230.768C522.499 267.621 492.623 297.497 455.77 297.497C453.964 297.497 452.5 296.033 452.5 294.228Z" stroke="#252429" stroke-width="5"/>
<path d="M527.501 230.768V219.229C527.501 182.376 557.377 152.5 594.23 152.5C596.036 152.5 597.5 153.963 597.5 155.769V294.228C597.5 296.033 596.036 297.497 594.23 297.497C557.377 297.497 527.501 267.621 527.501 230.768Z" stroke="#252429" stroke-width="5"/>
<path d="M1719.21 503.339C1724.06 503.339 1728 507.273 1728 512.125V644.541C1728 649.392 1724.06 653.325 1719.21 653.325H1586.78C1581.93 653.324 1578 649.392 1578 644.541V512.125C1578 507.273 1581.93 503.34 1586.78 503.339H1719.21Z" fill="#252429"/>
<path d="M1578 524.564C1578 525.227 1577.74 525.863 1577.27 526.332L1451 652.594C1450.54 653.063 1449.9 653.326 1449.24 653.326V653.326C1447.01 653.326 1445.89 650.634 1447.47 649.059L1573.73 522.797C1575.31 521.222 1578 522.337 1578 524.564V524.564ZM1578 562.065C1578 562.728 1577.74 563.364 1577.27 563.833L1488.51 652.594C1488.04 653.063 1487.4 653.326 1486.74 653.326V653.326C1484.51 653.326 1483.4 650.633 1484.97 649.058L1573.73 560.298C1575.31 558.723 1578 559.838 1578 562.065V562.065ZM1578 599.565C1578 600.228 1577.74 600.864 1577.27 601.333L1526.01 652.594C1525.54 653.063 1524.9 653.326 1524.24 653.326V653.326C1522.01 653.326 1520.9 650.634 1522.47 649.059L1573.73 597.798C1575.31 596.223 1578 597.338 1578 599.565V599.565ZM1578 637.065C1578 637.728 1577.74 638.364 1577.27 638.833L1563.51 652.594C1563.04 653.063 1562.4 653.326 1561.74 653.326V653.326C1559.51 653.326 1558.4 650.634 1559.97 649.059L1573.73 635.298C1575.31 633.723 1578 634.838 1578 637.065V637.065ZM1432.27 633.83C1430.69 635.405 1428 634.289 1428 632.062V632.062C1428 631.399 1428.26 630.763 1428.73 630.294L1554.97 504.061C1555.44 503.592 1556.07 503.329 1556.74 503.329V503.329C1558.96 503.329 1560.08 506.022 1558.5 507.596L1432.27 633.83ZM1432.27 596.342C1430.69 597.917 1428 596.802 1428 594.575V594.575C1428 593.912 1428.26 593.276 1428.73 592.807L1517.48 504.061C1517.95 503.592 1518.58 503.329 1519.25 503.329V503.329C1521.47 503.329 1522.59 506.022 1521.01 507.596L1432.27 596.342ZM1432.27 558.843C1430.69 560.417 1428 559.302 1428 557.075V557.075C1428 556.412 1428.26 555.776 1428.73 555.307L1479.98 504.061C1480.45 503.592 1481.08 503.329 1481.75 503.329V503.329C1483.97 503.329 1485.09 506.022 1483.51 507.597L1432.27 558.843ZM1432.27 521.329C1430.69 522.904 1428 521.788 1428 519.561V519.561C1428 518.898 1428.26 518.262 1428.73 517.793L1442.47 504.061C1442.93 503.592 1443.57 503.329 1444.23 503.329V503.329C1446.46 503.329 1447.57 506.022 1446 507.596L1432.27 521.329Z" fill="#252429"/>
<path d="M1578.42 490.174C1578.42 499.511 1566.76 503.754 1560.76 496.602L1506.16 431.523C1503.04 427.805 1503.04 422.385 1506.16 418.667L1560.76 353.592C1566.76 346.441 1578.42 350.684 1578.42 360.02L1578.42 490.174ZM1502.05 490.174C1502.05 499.511 1490.39 503.754 1484.39 496.602L1429.79 431.522C1426.67 427.804 1426.67 422.384 1429.79 418.666L1484.39 353.592C1490.39 346.44 1502.05 350.684 1502.05 360.02L1502.05 490.174Z" fill="#252429"/>
<path d="M1344.12 436.496C1347.06 433.553 1351.84 433.569 1354.76 436.532L1380.33 462.449C1383.22 465.383 1383.21 470.104 1380.29 473.019L1354.73 498.584C1351.81 501.499 1347.09 501.516 1344.16 498.621L1318.24 473.054C1315.28 470.131 1315.26 465.355 1318.2 462.412L1344.12 436.496ZM1301.77 394.423C1304.69 391.542 1309.38 391.542 1312.3 394.423L1338.24 420.013C1341.21 422.936 1341.22 427.713 1338.28 430.656L1312.34 456.596C1309.41 459.525 1304.66 459.525 1301.73 456.596L1275.79 430.656C1272.85 427.713 1272.87 422.936 1275.83 420.013L1301.77 394.423ZM1386.11 394.507C1389.04 391.578 1393.78 391.578 1396.71 394.507L1422.26 420.049C1425.17 422.964 1425.19 427.685 1422.29 430.62L1396.75 456.512C1393.81 459.489 1389.01 459.489 1386.07 456.512L1360.53 430.62C1357.63 427.685 1357.65 422.964 1360.57 420.049L1386.11 394.507ZM1344.12 352.121C1347.06 349.178 1351.84 349.194 1354.76 352.157L1380.33 378.074C1383.22 381.008 1383.21 385.729 1380.29 388.644L1354.73 414.209C1351.81 417.124 1347.09 417.141 1344.16 414.246L1318.24 388.679C1315.28 385.756 1315.26 380.98 1318.2 378.037L1344.12 352.121Z" stroke="#252429" stroke-width="5"/>
</svg>